<svg xmlns="http://www.w3.org/2000/svg" viewBox="0 0 32 32" width="32" height="32">
  <!-- Window shadow -->
  <rect x="6" y="8" width="22" height="18" fill="#000000" opacity="0.15"/>
  <!-- App Window -->
  <rect x="4" y="6" width="22" height="18" fill="#c0c0c0" stroke="#000000" stroke-width="1.5"/>
  <rect x="5" y="7" width="20" height="3" fill="#000080"/>
  <rect x="7" y="12" width="16" height="10" fill="#ffffff" stroke="#808080" stroke-width="1"/>
  <!-- Gear -->
  <path d="M24 13l2 2-1 3 3 1v2l-3 1 1 3-2 2-3-1-1 3h-2l-1-3-3 1-2-2 1-3-3-1v-2l3-1-1-3 2-2 3 1 1-3h2l1 3 3-1z" fill="#ffff00" stroke="#000000" stroke-width="1" stroke-linejoin="round"/>
  <circle cx="20" cy="18" r="2.5" fill="#c0c0c0" stroke="#000000" stroke-width="1"/>
</svg>
